<svg width="311" height="101" viewBox="0 0 311 101" fill="none" xmlns="http://www.w3.org/2000/svg">
<path d="M53.5866 91.7704V100.85H42.5048C30.8396 100.85 20.4139 92.8209 17.1331 81.3403C16.6228 79.6894 16.3312 78.0386 16.0395 76.6129C15.3105 72.9361 14.873 70.9851 13.0503 69.1842L0 56.1278L13.0503 43.0713C14.8001 41.2704 15.3105 39.3195 16.0395 35.6426C16.3312 34.2169 16.6228 32.6412 17.1331 30.9153C20.4139 19.4346 30.8396 11.4056 42.5048 11.4056H46.5146L44.1087 18.159L43.7442 19.2845L43.3067 20.4101H42.4318C34.6308 20.4101 27.7046 25.7377 25.5174 33.3915C25.1529 34.7422 24.8613 36.0178 24.5696 37.3685C23.7677 41.2704 22.8928 45.6226 19.1016 49.4495L12.54 55.9777L19.1016 62.5059C22.8928 66.3328 23.7677 70.685 24.5696 74.5869C24.8613 75.9376 25.08 77.2883 25.5174 78.5639C27.7046 86.2177 34.6308 91.5453 42.4318 91.5453H53.5137L53.5866 91.7704Z" fill="#5B9BF5"/>
<path d="M115.266 56.1278L102.216 69.1843C100.466 70.9852 99.9554 72.9361 99.2263 76.613C98.9347 78.0387 98.6431 79.6144 98.1327 81.3403C94.8519 92.821 84.4262 100.85 72.7611 100.85H61.7522V91.7705H72.7611C80.5622 91.7705 87.4883 86.4428 89.6755 78.789C90.0401 77.5134 90.3317 76.1627 90.5504 74.8121C91.3524 70.9101 92.2273 66.558 96.0184 62.7311L102.58 56.2029L96.0184 49.6746C92.2273 45.8477 91.3524 41.4956 90.5504 37.5936C90.2588 36.243 90.0401 34.9673 89.6755 33.6167C87.4883 25.9629 80.4893 20.6352 72.7611 20.6352H71.9591L71.5946 19.4346L71.3759 18.8344L71.1572 18.2341L68.7512 11.4807H72.7611C84.4262 11.4807 94.8519 19.5097 98.1327 30.9904C98.6431 32.6412 98.9347 34.292 99.2263 35.7177C99.9554 39.3945 100.466 41.3455 102.216 43.1464L115.266 56.2029V56.1278Z" fill="#5B9BF5"/>
<path d="M75.8961 81.5654L75.0941 79.2392L63.0645 44.6471L57.7423 29.4146L54.6073 38.344L40.3175 79.3143L39.5156 81.6404C34.6308 79.3143 32.079 73.2363 33.9746 67.6835L46.7333 31.2155L48.8476 25.1374L49.6496 22.8863L50.0142 21.7608L50.3787 20.6352L53.1492 12.6813L53.5137 11.5557L54.3157 9.30461L55.1176 7.05349L57.5965 0L60.0753 7.05349L60.8773 9.30461L61.6793 11.5557L62.0438 12.6813L64.8143 20.6352L65.1788 21.7608L65.5433 22.8863L66.3453 25.1374L68.4596 31.2155L81.2183 67.6835C83.1868 73.2363 80.5622 79.3143 75.7503 81.6404L75.8961 81.5654Z" fill="#E7EBEF"/>
<path d="M157.173 69.4447H142.418L140.079 76.5818H130L144.272 36H155.4L169.672 76.5818H159.512L157.173 69.4447ZM154.674 61.8097L149.755 46.9546L144.917 61.8097H154.674Z" fill="#E7EBEF"/>
<path d="M202.232 36V43.967H191.749V76.6648H182.154V43.967H171.672V36H202.232Z" fill="#E7EBEF"/>
<path d="M218.827 68.9468H231.406V76.5818H209.232V36H218.827V68.9468Z" fill="#E7EBEF"/>
<path d="M264.579 69.4447H249.824L247.485 76.5818H237.406L251.678 36H262.806L277.078 76.5818H266.918L264.579 69.4447ZM262.16 61.8097L257.242 46.9546L252.404 61.8097H262.16Z" fill="#E7EBEF"/>
<path d="M288.738 75.1669C286.48 74.171 284.626 72.7602 283.255 70.8514C281.884 68.9427 281.158 66.702 281.078 64.0463H291.318C291.479 65.5401 291.963 66.702 292.85 67.4489C293.737 68.2788 294.866 68.6107 296.237 68.6107C297.607 68.6107 298.817 68.2788 299.623 67.6148C300.43 66.9509 300.833 66.0381 300.833 64.7932C300.833 63.7973 300.51 62.9674 299.865 62.3035C299.22 61.6396 298.414 61.1417 297.446 60.7267C296.479 60.3118 295.108 59.8138 293.334 59.3159C290.754 58.486 288.738 57.6561 287.125 56.9092C285.512 56.0793 284.142 54.9175 282.932 53.3407C281.803 51.7639 281.158 49.6891 281.158 47.1165C281.158 43.2989 282.448 40.3943 285.109 38.2366C287.77 36.0789 291.237 35 295.511 35C299.785 35 303.332 36.0789 305.993 38.2366C308.654 40.3943 310.106 43.3819 310.267 47.1994H299.865C299.865 45.8716 299.301 44.8757 298.494 44.1288C297.607 43.3819 296.559 42.967 295.188 42.967C294.06 42.967 293.092 43.2989 292.366 43.9629C291.641 44.6268 291.318 45.5397 291.318 46.7015C291.318 48.0293 291.883 49.0252 293.092 49.7721C294.302 50.519 296.156 51.2659 298.736 52.1788C301.317 53.0917 303.332 53.9216 304.945 54.7515C306.558 55.5814 307.929 56.7432 309.057 58.32C310.186 59.8968 310.831 61.8886 310.831 64.2953C310.831 66.702 310.267 68.6937 309.138 70.6025C308.009 72.5112 306.316 74.005 304.139 75.0839C301.962 76.2458 299.381 76.7437 296.398 76.7437C293.415 76.7437 290.915 76.2458 288.657 75.3329L288.738 75.1669Z" fill="#E7EBEF"/>
</svg>
