<svg width="116" height="101" viewBox="0 0 116 101" fill="none" xmlns="http://www.w3.org/2000/svg">
<path d="M53.5866 91.7704V100.85H42.5048C30.8396 100.85 20.4139 92.8209 17.1331 81.3403C16.6228 79.6894 16.3312 78.0386 16.0395 76.6129C15.3105 72.9361 14.873 70.9851 13.0503 69.1842L0 56.1278L13.0503 43.0713C14.8001 41.2704 15.3105 39.3195 16.0395 35.6426C16.3312 34.2169 16.6228 32.6412 17.1331 30.9153C20.4139 19.4346 30.8396 11.4056 42.5048 11.4056H46.5146L44.1087 18.159L43.7442 19.2845L43.3067 20.4101H42.4318C34.6308 20.4101 27.7046 25.7377 25.5174 33.3915C25.1529 34.7422 24.8613 36.0178 24.5696 37.3685C23.7677 41.2704 22.8928 45.6226 19.1016 49.4495L12.54 55.9777L19.1016 62.5059C22.8928 66.3328 23.7677 70.685 24.5696 74.5869C24.8613 75.9376 25.08 77.2883 25.5174 78.5639C27.7046 86.2177 34.6308 91.5453 42.4318 91.5453H53.5137L53.5866 91.7704Z" fill="#5B9BF5"/>
<path d="M115.266 56.1278L102.216 69.1843C100.466 70.9852 99.9554 72.9361 99.2263 76.613C98.9347 78.0387 98.6431 79.6144 98.1327 81.3403C94.8519 92.821 84.4262 100.85 72.7611 100.85H61.7522V91.7705H72.7611C80.5622 91.7705 87.4883 86.4428 89.6755 78.789C90.0401 77.5134 90.3317 76.1627 90.5504 74.8121C91.3524 70.9101 92.2273 66.558 96.0184 62.7311L102.58 56.2029L96.0184 49.6746C92.2273 45.8477 91.3524 41.4956 90.5504 37.5936C90.2588 36.243 90.0401 34.9673 89.6755 33.6167C87.4883 25.9629 80.4893 20.6352 72.7611 20.6352H71.9591L71.5946 19.4346L71.3759 18.8344L71.1572 18.2341L68.7512 11.4807H72.7611C84.4262 11.4807 94.8519 19.5097 98.1327 30.9904C98.6431 32.6412 98.9347 34.292 99.2263 35.7177C99.9554 39.3945 100.466 41.3455 102.216 43.1464L115.266 56.2029V56.1278Z" fill="#5B9BF5"/>
<path d="M75.8961 81.5654L75.0941 79.2392L63.0645 44.6471L57.7423 29.4146L54.6073 38.344L40.3175 79.3143L39.5156 81.6404C34.6308 79.3143 32.079 73.2363 33.9746 67.6835L46.7333 31.2155L48.8476 25.1374L49.6496 22.8863L50.0142 21.7608L50.3787 20.6352L53.1492 12.6813L53.5137 11.5557L54.3157 9.30461L55.1176 7.05349L57.5965 0L60.0753 7.05349L60.8773 9.30461L61.6793 11.5557L62.0438 12.6813L64.8143 20.6352L65.1788 21.7608L65.5433 22.8863L66.3453 25.1374L68.4596 31.2155L81.2183 67.6835C83.1868 73.2363 80.5622 79.3143 75.7503 81.6404L75.8961 81.5654Z" fill="#E7EBEF"/>
</svg>
