<svg width="105" height="89" viewBox="0 0 105 89" fill="none" xmlns="http://www.w3.org/2000/svg">
  <path d="M48.51 80.92V88.92H38.5C27.94 88.92 18.47 81.85 15.49 71.73C15.06 70.26 14.75 68.84 14.5 67.59C13.83 64.38 13.42 62.63 11.81 61.07L0 49.57L11.81 38.08C13.42 36.52 13.83 34.77 14.5 31.56C14.75 30.3 15.06 28.89 15.49 27.41C18.47 17.29 27.94 10.22 38.5 10.22H42.14L39.99 16.19L39.64 17.17L39.27 18.19V18.22H38.5C31.46 18.22 25.15 22.93 23.17 29.68C22.81 30.84 22.58 31.97 22.33 33.18C21.62 36.6 20.82 40.47 17.38 43.81L11.46 49.57L17.38 55.33C20.82 58.67 21.62 62.55 22.33 65.96C22.58 67.17 22.81 68.31 23.17 69.46C25.15 76.21 31.46 80.92 38.5 80.92H48.51Z" fill="white"/>
  <path d="M104.4 49.57L92.59 61.07C90.99 62.63 90.56 64.38 89.89 67.59C89.63 68.84 89.34 70.26 88.9 71.73C85.92 81.85 76.45 88.92 65.88 88.92H55.88V80.92H65.88C72.94 80.92 79.25 76.21 81.24 69.46C81.57 68.31 81.81 67.17 82.06 65.96C82.77 62.55 83.57 58.67 87.01 55.33L92.94 49.57L87.01 43.81C83.57 40.47 82.77 36.6 82.06 33.18C81.81 31.98 81.57 30.84 81.24 29.68C79.25 22.93 72.94 18.22 65.88 18.22H65.14V18.19L64.77 17.19L64.58 16.69L64.41 16.19L62.26 10.22H65.88C76.45 10.22 85.92 17.29 88.9 27.41C89.34 28.89 89.63 30.31 89.89 31.56C90.56 34.77 90.99 36.52 92.59 38.08L104.4 49.57Z" fill="white"/>
  <path d="M68.7 71.96L67.96 69.92L52.2 26.05L49.38 33.88L35.71 71.97C31.31 69.94 28.96 64.57 30.72 59.67L45.28 19.22L45.64 18.23L48.16 11.22L48.52 10.23L49.24 8.22L52.2 0L73.68 59.67C75.44 64.56 73.1 69.94 68.7 71.96Z" fill="white"/>
</svg>
