<svg xmlns="http://www.w3.org/2000/svg" viewBox="0 0 96 96" role="img" aria-label="Júlia Tavares">
  <defs><linearGradient id="bg" x1="0" y1="0" x2="1" y2="1"><stop stop-color="#8273e0"/><stop offset="1" stop-color="#493a9d"/></linearGradient></defs>
  <rect width="96" height="96" rx="48" fill="url(#bg)"/>
  <path d="M25 43c0-20 9-31 23-31s23 11 23 31v20H25z" fill="#3c2525"/>
  <circle cx="48" cy="39" r="19" fill="#b97651"/>
  <path d="M27 37c2-17 10-25 22-25 11 0 19 8 21 23-10-1-18-5-24-12-4 7-11 12-19 14z" fill="#3c2525"/>
  <path d="M16 96c3-25 14-37 32-37s29 12 32 37z" fill="#332969"/>
  <path d="M39 47c5 4 13 4 18 0" fill="none" stroke="#75442e" stroke-width="2.5" stroke-linecap="round"/>
</svg>
